# xmcd
#
# Track frame offsets:
#	150
#	18224
#	36633
#	53402
#	69977
#	85130
#	103020
#	123042
#	138434
#	156669
#	172737
#	188096
#	202363
#	222147
#	238832
#	251751
#
# Disc length: 3582 seconds
#
# Revision: 1
# Processed by: cddbd v1.4PL0 Copyright (c) Steve Scherf et al.
# Submitted via: audiograbber 1.82.01
#
DISCID=e00dfc10
DTITLE=Darryl Worley - Have You Forgotten
DYEAR=2003
DGENRE=Country
TTITLE0=Have You Forgotten
TTITLE1=I Will Hold My Ground
TTITLE2=Pow 369
TTITLE3=I Need a Breather
TTITLE4=Back Where I Belong
TTITLE5=Those Less Fortunate Than I
TTITLE6=Shiloh
TTITLE7=Tennessee River Run
TTITLE8=The Least That You Can Do
TTITLE9=I Miss My Friend
TTITLE10=Family Tree
TTITLE11=A Good Day To Run
TTITLE12=Second Wind
TTITLE13=When You Need My Love
TTITLE14=Too Many Pockets
TTITLE15=The Way Things Are Goin'
EXTD=
EXTT0=
EXTT1=
EXTT2=
EXTT3=
EXTT4=
EXTT5=
EXTT6=
EXTT7=
EXTT8=
EXTT9=
EXTT10=
EXTT11=
EXTT12=
EXTT13=
EXTT14=
EXTT15=
PLAYORDER=
